<?xml version="1.0" encoding="UTF-8"?>
<svg width="200px" height="32px" viewBox="0 0 200 32" version="1.1" xmlns="http://www.w3.org/2000/svg" xmlns:xlink="http://www.w3.org/1999/xlink">
    <!-- Generator: Sketch 51.2 (57519) - http://www.bohemiancoding.com/sketch -->
    <title>logo-positronx-white</title>
    <desc>Created with Sketch.</desc>
    <defs></defs>
    <g id="Page-1" stroke="none" stroke-width="1" fill="none" fill-rule="evenodd" opacity="0.900000036">
        <g id="logo-positronx-white" fill="#FFFFFF">
            <g id="Group" fill-rule="nonzero">
                <path d="M24.5909494,15.5442786 C27.4764812,12.4437402 28.7158032,9.41455427 27.5483477,7.48803329 C26.8418579,6.32172416 25.3823903,5.70568025 23.3283834,5.70568025 C22.1806141,5.70568025 20.8763829,5.89957753 19.4815477,6.2578033 C18.3123134,2.43769035 16.4242161,0 14.254701,0 C12.0851858,0 10.197049,2.43765084 9.02785415,6.2577638 C7.63309741,5.89957753 6.32898484,5.70568025 5.1813342,5.70568025 C3.12732727,5.70568025 1.66785997,6.32172422 0.961370142,7.48803329 C0.00662849741,9.06356256 0.586936852,11.3772061 2.59572053,14.0039315 C2.98829832,14.517117 3.43712811,15.0322 3.91730557,15.5457017 C1.03284132,18.6456473 -0.205888018,21.6738449 0.961370078,23.6000496 C1.66785991,24.7657262 3.1273272,25.3824027 5.18165039,25.3824027 C5.18165039,25.3824027 5.18165039,25.3824027 5.18196665,25.3824027 C6.32941969,25.3824027 7.63333459,25.1885449 9.02789365,24.8303982 C10.1970885,28.6505111 12.0851858,31.0880829 14.254701,31.0880829 C16.4242162,31.0880829 18.3123134,28.6503926 19.4815478,24.8302796 C20.876383,25.1885054 22.1806141,25.3824027 23.3283834,25.3824027 C25.3823903,25.3824027 26.841858,24.7663587 27.5486641,23.6000496 C28.7156847,21.6735682 27.4763231,18.6447381 24.5909494,15.5442786 Z M23.3283834,7.00101703 C24.4279649,7.00101703 25.8602355,7.20151593 26.4405438,8.15973627 C27.2092943,9.42850855 26.1872321,11.8978233 23.6762916,14.6130972 C22.7629385,13.7291548 21.7177114,12.8495607 20.5664635,11.9944755 C20.4152987,10.3846733 20.1640426,8.87650408 19.8266098,7.51036807 C21.0983865,7.18649437 22.2890464,7.00101703 23.3283834,7.00101703 Z M16.9402478,19.9752571 C16.0466599,20.5167069 15.1480121,21.0007188 14.2548195,21.4457537 C13.3616269,21.0007188 12.4629791,20.5167069 11.5694703,19.9752571 C10.7402777,19.4728634 9.94314424,18.9469095 9.18546237,18.4044319 C9.11422837,17.4890232 9.07335382,16.5359418 9.07335382,15.5440415 C9.07335382,14.5539199 9.11414935,13.602578 9.18514618,12.6886714 C9.93002014,12.154179 10.7226075,11.6260904 11.5694703,11.1128258 C12.4629791,10.571376 13.3615874,10.0873641 14.2547801,9.64236878 C15.1479331,10.0873641 16.0465019,10.571376 16.9399316,11.1128258 C17.7867944,11.6260904 18.5793817,12.1541394 19.3242558,12.6886318 C19.3952526,13.6025384 19.4360481,14.5539199 19.4360481,15.5440415 C19.4360481,16.534321 19.3952526,17.4858212 19.3242162,18.3998859 C18.5794212,18.9342202 17.786992,19.4621506 16.9402478,19.9752571 Z M19.1502423,20.0967739 C19.0052442,21.2184926 18.8064847,22.2572366 18.5707245,23.216208 C17.6557902,22.9257376 16.7104568,22.5674328 15.7437769,22.1430329 C16.3675293,21.8110554 16.9914004,21.4589964 17.6113183,21.0833772 C18.1418972,20.7618753 18.6521179,20.431479 19.1502423,20.0967739 Z M12.7659017,22.1430329 C11.7991032,22.5675119 10.8537303,22.9258562 9.9387169,23.2163662 C9.70279864,22.2568414 9.50392047,21.2174253 9.3588829,20.0949161 C9.86036736,20.4319534 10.3709043,20.7637333 10.8983999,21.0833773 C11.5183178,21.4589964 12.1421493,21.8110949 12.7659017,22.1430329 Z M7.82193543,17.3701944 C7.07251483,16.7742714 6.37673776,16.1650267 5.73800324,15.5491409 C6.36404845,14.9420704 7.05678161,14.3292679 7.82189592,13.7187187 C7.7939478,14.3168949 7.77801703,14.9250723 7.77801703,15.5440415 C7.77801703,16.1633269 7.7939478,16.7717415 7.82193543,17.3701944 Z M9.35912008,10.9916648 C9.50411813,9.86974845 9.70287766,8.83084631 9.9387169,7.87175628 C10.8537699,8.16226626 11.7991032,8.52061062 12.7658622,8.94505 C12.1421098,9.27698795 11.5183178,9.62908646 10.8983999,10.0047057 C10.3677023,10.3263262 9.85736302,10.6568411 9.35912008,10.9916648 Z M15.7437769,8.94505 C16.7104568,8.52065013 17.6557506,8.16234527 18.5707245,7.87187487 C18.8064847,8.83088582 19.0053233,9.86970894 19.1502818,10.9914671 C18.6521574,10.6567225 18.1418972,10.3262867 17.6113183,10.0047057 C16.9914003,9.62908653 16.3675293,9.27702753 15.7437769,8.94505 Z M20.687506,13.7187187 C21.4506431,14.3276472 22.1418741,14.9388684 22.7666938,15.5443577 C22.1418741,16.149847 21.4506431,16.7610287 20.6874665,17.3699177 C20.7154541,16.7715438 20.7313849,16.1632084 20.7313849,15.5440415 C20.7313849,14.9250327 20.7154541,14.3168948 20.687506,13.7187187 Z M14.254701,1.29533679 C15.6832161,1.29533679 17.2030864,3.29388238 18.2256229,6.61591049 C16.9463356,7.01963595 15.6090173,7.54918705 14.2548196,8.19282332 C12.9005427,7.54914754 11.563185,7.01959637 10.2838185,6.61583141 C11.3063155,3.29384288 12.8261858,1.29533679 14.254701,1.29533679 Z M3.6247796,13.2164832 C1.98631801,11.0748766 1.4192919,9.23180453 2.06885777,8.15973627 C2.64948206,7.20151593 4.08175266,7.00101703 5.1813342,7.00101703 C6.22059216,7.00101703 7.41117299,7.18649437 8.68283161,7.51028899 C8.34535939,8.87650402 8.09414281,10.3847523 7.94293847,11.9946336 C6.78852746,12.8520906 5.74096807,13.7342146 4.8257965,14.620608 C4.39048614,14.1523292 3.98177992,13.6832994 3.6247796,13.2164832 Z M5.18196665,24.0870659 L5.1813342,24.0870659 C4.08175266,24.0870659 2.64948206,23.8859345 2.06885777,22.9283466 C1.30026548,21.6599301 2.32248575,19.1906944 4.833584,16.4752624 C5.76112863,17.3696804 6.80552552,18.2483653 7.94285939,19.0925401 C8.09402416,20.7027772 8.34531982,22.2113417 8.68283161,23.5778335 C7.4113706,23.9015885 6.22102694,24.0870659 5.18196665,24.0870659 Z M14.254701,29.7927461 C12.8261858,29.7927461 11.3063551,27.79424 10.2838185,24.472291 C11.5631455,24.068526 12.9005823,23.5389749 14.2548591,22.8952596 C15.6090173,23.5388959 16.9463355,24.068447 18.2256229,24.4721724 C17.2030864,27.7942005 15.6832161,29.7927461 14.254701,29.7927461 Z M26.4408601,22.9283466 C25.8602355,23.886567 24.4279649,24.0870659 23.3283834,24.0870659 C22.2890464,24.0870659 21.0983865,23.9015885 19.8266098,23.5777148 C20.1640426,22.2116579 20.4152591,20.7035677 20.5664239,19.0938841 C21.7176323,18.2389175 22.7628199,17.359442 23.676173,16.4755391 C26.187153,19.1908525 27.2094129,21.6600092 26.4408601,22.9283466 Z" id="Shape"></path>
                <path d="M14.2577448,13.2748302 C13.0077495,13.2748302 11.9909054,14.2916744 11.9909054,15.5416696 C11.9909054,16.7916649 13.0077495,17.808509 14.2577448,17.808509 C15.5012966,17.808509 16.5245842,16.7916649 16.5245842,15.5416696 C16.5245842,14.2916744 15.5012966,13.2748302 14.2577448,13.2748302 Z" id="Shape"></path>
            </g>
            <path d="M45.838342,7.87046632 C47.8248705,7.87046632 49.4476684,8.54196891 50.734715,9.85699482 C52.0497409,11.1720207 52.6932642,12.934715 52.6932642,15.2010363 C52.6932642,17.4673575 52.0497409,19.2580311 50.734715,20.573057 C49.4476684,21.8880829 47.8248705,22.5316062 45.838342,22.5316062 C43.2642487,22.5316062 41.361658,21.3564767 40.4943005,19.6497409 L40.4943005,29.4145078 L38.9274611,29.4145078 L38.9274611,8.12227979 L40.4103627,8.12227979 L40.4103627,10.8642487 C41.3056995,9.07357513 43.2642487,7.87046632 45.838342,7.87046632 Z M45.6984456,9.26943005 C42.5927461,9.26943005 40.4943005,11.1720207 40.4943005,14.7253886 L40.4943005,15.7046632 C40.4943005,19.2580311 42.5927461,21.1606218 45.6984456,21.1606218 C47.265285,21.1606218 48.5523316,20.6290155 49.5875648,19.5937824 C50.6227979,18.5305699 51.1264249,17.0756477 51.1264249,15.2290155 C51.1264249,13.3544041 50.6227979,11.8715026 49.5875648,10.8362694 C48.5523316,9.80103627 47.265285,9.26943005 45.6984456,9.26943005 Z M58.6424871,9.88497409 C60.0134715,8.54196891 61.7202073,7.87046632 63.7626943,7.87046632 C65.8051814,7.87046632 67.5119171,8.54196891 68.8829016,9.88497409 C70.253886,11.2 70.9253886,12.9906736 70.9253886,15.2010363 C70.9253886,17.411399 70.253886,19.2020725 68.8829016,20.5450777 C67.5119171,21.8601036 65.8051814,22.5316062 63.7626943,22.5316062 C61.7202073,22.5316062 60.0134715,21.8601036 58.6424871,20.5450777 C57.2994819,19.2020725 56.6279793,17.411399 56.6279793,15.2010363 C56.6279793,12.9906736 57.2994819,11.2 58.6424871,9.88497409 Z M63.7626943,9.26943005 C62.1398964,9.26943005 60.7968912,9.80103627 59.7616581,10.8642487 C58.7264249,11.9274611 58.1948187,13.3823834 58.1948187,15.2010363 C58.1948187,17.0196891 58.7264249,18.4746114 59.7616581,19.5658031 C60.8248705,20.6290155 62.1678757,21.1606218 63.7626943,21.1606218 C65.357513,21.1606218 66.7005182,20.6290155 67.7357513,19.5658031 C68.7989638,18.4746114 69.33057,17.0196891 69.33057,15.2010363 C69.33057,13.3823834 68.7989638,11.9274611 67.7357513,10.8642487 C66.7005182,9.80103627 65.357513,9.26943005 63.7626943,9.26943005 Z M79.9803109,7.8984456 C82.8621762,7.87046632 84.568912,9.40932642 84.9046633,11.8715026 L83.3378239,11.9834197 C83.1139897,10.2766839 81.9388601,9.24145078 79.9243524,9.26943005 C77.7699482,9.24145078 76.622798,10.2207254 76.622798,11.8715026 C76.622798,12.319171 76.7626943,12.7108808 76.8746114,12.9626943 C77.0145078,13.2145078 77.4341969,13.4663212 77.6300519,13.6062176 C77.8538861,13.7181347 78.5813472,13.9139896 78.8331607,13.9979275 L79.5606218,14.1658031 L80.3440415,14.3336788 C82.0787565,14.7533679 83.3378239,15.2290155 84.1212436,15.7606218 C84.9046633,16.292228 85.2963731,17.1595855 85.2963731,18.334715 C85.2963731,21.0207254 83.2818653,22.5316062 80.1481866,22.5316062 C77.1264249,22.5316062 75.1119171,21.0766839 74.7481866,18.5025907 L76.315026,18.3906736 C76.622798,20.2093264 78.0217617,21.1606218 80.1761658,21.1606218 C82.33057,21.1606218 83.7295337,20.2373057 83.7295337,18.4466321 C83.7295337,17.6072539 83.449741,17.0196891 82.8901555,16.6839378 C82.33057,16.3202073 81.2673576,15.984456 79.7005182,15.6207254 C79.1409327,15.480829 78.7772021,15.3968912 78.5813472,15.3689119 L77.6580311,15.0891192 C77.2103627,14.9492228 76.9025907,14.8373057 76.7347151,14.7533679 C76.426943,14.557513 75.6994819,14.1378238 75.4756477,13.7181347 C75.2797928,13.2704663 75.0559586,12.6549223 75.0559586,11.8994819 C75.0559586,9.4373057 76.8466322,7.87046632 79.9803109,7.8984456 Z M90.4062177,1.9388601 C91.357513,0.76373057 93.2041451,2.61036269 92.0290156,3.56165803 C91.5813472,4.00932642 90.8538861,4.00932642 90.4062177,3.56165803 C89.9585493,3.11398964 89.9585493,2.3865285 90.4062177,1.9388601 Z M92.0010363,8.12227979 L92.0010363,22.2797927 L90.434197,22.2797927 L90.434197,8.12227979 L92.0010363,8.12227979 Z M102.622798,20.9927461 C102.986529,20.9927461 103.490156,20.9367876 104.1057,20.8528497 L104.1057,22.2797927 C103.630052,22.3637306 103.042487,22.4196891 102.315026,22.4196891 C99.8528498,22.4196891 98.3699483,21.0487047 98.3699483,18.1388601 L98.3979276,9.49326425 L95.7119172,9.49326425 L95.7119172,8.12227979 L98.3979276,8.12227979 L98.4259068,3.11398964 L100.020725,3.11398964 L99.9927462,8.12227979 L104.049741,8.12227979 L104.049741,9.49326425 L99.9927462,9.49326425 L99.9367877,17.8590674 C99.9367877,19.957513 100.832124,20.9927461 102.622798,20.9927461 Z M113.832124,7.92642487 L113.832124,9.4373057 C112.545078,9.4373057 111.509845,9.85699482 110.726425,10.6683938 C109.970985,11.4797927 109.579275,12.4590674 109.579275,13.6621762 L109.579275,22.2797927 L108.012435,22.2797927 L108.012435,8.12227979 L109.523316,8.12227979 L109.523316,10.4445596 C110.054922,9.07357513 111.593782,7.92642487 113.832124,7.92642487 Z M118.466321,9.88497409 C119.837306,8.54196891 121.544042,7.87046632 123.586529,7.87046632 C125.629016,7.87046632 127.335751,8.54196891 128.706736,9.88497409 C130.07772,11.2 130.749223,12.9906736 130.749223,15.2010363 C130.749223,17.411399 130.07772,19.2020725 128.706736,20.5450777 C127.335751,21.8601036 125.629016,22.5316062 123.586529,22.5316062 C121.544042,22.5316062 119.837306,21.8601036 118.466321,20.5450777 C117.123316,19.2020725 116.451814,17.411399 116.451814,15.2010363 C116.451814,12.9906736 117.123316,11.2 118.466321,9.88497409 Z M123.586529,9.26943005 C121.963731,9.26943005 120.620726,9.80103627 119.585492,10.8642487 C118.550259,11.9274611 118.018653,13.3823834 118.018653,15.2010363 C118.018653,17.0196891 118.550259,18.4746114 119.585492,19.5658031 C120.648705,20.6290155 121.99171,21.1606218 123.586529,21.1606218 C125.181347,21.1606218 126.524352,20.6290155 127.559586,19.5658031 C128.622798,18.4746114 129.154404,17.0196891 129.154404,15.2010363 C129.154404,13.3823834 128.622798,11.9274611 127.559586,10.8642487 C126.524352,9.80103627 125.181347,9.26943005 123.586529,9.26943005 Z M141.93057,7.87046632 C143.525389,7.87046632 144.840415,8.40207254 145.847669,9.46528497 C146.882902,10.5005181 147.386529,11.8715026 147.386529,13.5782383 L147.386529,22.2797927 L145.819689,22.2797927 L145.819689,13.7740933 C145.819689,11.1160622 144.140933,9.3253886 141.678757,9.3253886 C140.419689,9.3253886 139.356477,9.77305699 138.517099,10.6404145 C137.7057,11.507772 137.286011,12.5709845 137.286011,13.7740933 L137.286011,22.2797927 L135.719171,22.2797927 L135.719171,8.12227979 L137.230052,8.12227979 L137.230052,10.5284974 C137.901555,9.07357513 139.60829,7.87046632 141.93057,7.87046632 Z M162.988601,11.6476684 L169.815544,22.2797927 L165.954404,22.2797927 L160.554404,13.8580311 L155.126425,22.2797927 L151.265285,22.2797927 L158.092228,11.6476684 L151.601036,1.35129534 L155.434197,1.35129534 L160.554404,9.40932642 L165.646632,1.35129534 L169.479793,1.35129534 L162.988601,11.6476684 Z M173.592746,18.5305699 C174.711917,18.5305699 175.635233,19.4259067 175.635233,20.573057 C175.635233,21.6642487 174.711917,22.5595855 173.592746,22.5595855 C172.501555,22.5595855 171.606218,21.6642487 171.606218,20.573057 C171.606218,19.4259067 172.501555,18.5305699 173.592746,18.5305699 Z M179.412435,1.9388601 C180.363731,0.76373057 182.210363,2.61036269 181.035233,3.56165803 C180.587565,4.00932642 179.860104,4.00932642 179.412435,3.56165803 C178.964767,3.11398964 178.964767,2.3865285 179.412435,1.9388601 Z M181.007254,8.12227979 L181.007254,22.2797927 L179.440415,22.2797927 L179.440415,8.12227979 L181.007254,8.12227979 Z M187.302591,9.88497409 C188.673575,8.54196891 190.380311,7.87046632 192.422798,7.87046632 C194.465285,7.87046632 196.172021,8.54196891 197.543005,9.88497409 C198.91399,11.2 199.585492,12.9906736 199.585492,15.2010363 C199.585492,17.411399 198.91399,19.2020725 197.543005,20.5450777 C196.172021,21.8601036 194.465285,22.5316062 192.422798,22.5316062 C190.380311,22.5316062 188.673575,21.8601036 187.302591,20.5450777 C185.959586,19.2020725 185.288083,17.411399 185.288083,15.2010363 C185.288083,12.9906736 185.959586,11.2 187.302591,9.88497409 Z M192.422798,9.26943005 C190.8,9.26943005 189.456995,9.80103627 188.421762,10.8642487 C187.386529,11.9274611 186.854922,13.3823834 186.854922,15.2010363 C186.854922,17.0196891 187.386529,18.4746114 188.421762,19.5658031 C189.484974,20.6290155 190.827979,21.1606218 192.422798,21.1606218 C194.017617,21.1606218 195.360622,20.6290155 196.395855,19.5658031 C197.459068,18.4746114 197.990674,17.0196891 197.990674,15.2010363 C197.990674,13.3823834 197.459068,11.9274611 196.395855,10.8642487 C195.360622,9.80103627 194.017617,9.26943005 192.422798,9.26943005 Z" id="positronX.io"></path>
        </g>
    </g>
</svg>